<?xml version="1.0" encoding="UTF-8" standalone="no"?>
<svg
   xmlns:dc="http://purl.org/dc/elements/1.1/"
   xmlns:cc="http://creativecommons.org/ns#"
   xmlns:rdf="http://www.w3.org/1999/02/22-rdf-syntax-ns#"
   xmlns:svg="http://www.w3.org/2000/svg"
   xmlns="http://www.w3.org/2000/svg"
   xmlns:xlink="http://www.w3.org/1999/xlink"
   xmlns:sodipodi="http://sodipodi.sourceforge.net/DTD/sodipodi-0.dtd"
   xmlns:inkscape="http://www.inkscape.org/namespaces/inkscape"
   sodipodi:docname="logo.svg"
   inkscape:version="1.0 (4035a4fb49, 2020-05-01)"
   id="svg8"
   version="1.1"
   viewBox="0 0 103.04286 103.04286"
   height="103.04285mm"
   width="103.04285mm">
  <defs
     id="defs2">
    <linearGradient
       id="linearGradient880"
       inkscape:collect="always">
      <stop
         id="stop876"
         offset="0"
         style="stop-color:#923c00;stop-opacity:1" />
      <stop
         style="stop-color:#dc5b00;stop-opacity:1"
         offset="0.21564995"
         id="stop888" />
      <stop
         style="stop-color:#ff9246;stop-opacity:1"
         offset="0.48534772"
         id="stop884" />
      <stop
         id="stop886"
         offset="0.82983565"
         style="stop-color:#dc5b00;stop-opacity:1" />
      <stop
         id="stop878"
         offset="1"
         style="stop-color:#923c00;stop-opacity:1" />
    </linearGradient>
    <inkscape:path-effect
       update_on_knot_move="true"
       attempt_force_join="true"
       miter_limit="4"
       offset="1.3"
       unit="mm"
       linejoin_type="miter"
       lpeversion="1"
       is_visible="true"
       id="path-effect874"
       effect="offset" />
    <linearGradient
       gradientUnits="userSpaceOnUse"
       y2="75.637276"
       x2="118.13313"
       y1="75.637276"
       x1="34.745041"
       id="linearGradient882"
       xlink:href="#linearGradient880"
       inkscape:collect="always" />
  </defs>
  <sodipodi:namedview
     fit-margin-bottom="0"
     fit-margin-right="0"
     fit-margin-left="0"
     fit-margin-top="0"
     inkscape:snap-global="false"
     inkscape:window-maximized="1"
     inkscape:window-y="-8"
     inkscape:window-x="-8"
     inkscape:window-height="705"
     inkscape:window-width="1366"
     showgrid="false"
     inkscape:document-rotation="0"
     inkscape:current-layer="layer1"
     inkscape:document-units="mm"
     inkscape:cy="164.01037"
     inkscape:cx="210.5664"
     inkscape:zoom="0.9899495"
     inkscape:pageshadow="2"
     inkscape:pageopacity="0.0"
     borderopacity="1.0"
     bordercolor="#666666"
     pagecolor="#ffffff"
     id="base" />
  <metadata
     id="metadata5">
    <rdf:RDF>
      <cc:Work
         rdf:about="">
        <dc:format>image/svg+xml</dc:format>
        <dc:type
           rdf:resource="http://purl.org/dc/dcmitype/StillImage" />
        <dc:title />
      </cc:Work>
    </rdf:RDF>
  </metadata>
  <g
     transform="translate(-24.91766,-24.115849)"
     id="layer1"
     inkscape:groupmode="layer"
     inkscape:label="Layer 1">
    <path
       d="M 118.13313,75.637276 A 41.694046,41.694046 0 0 1 77.938368,117.30436 41.694046,41.694046 0 0 1 34.852867,78.633899 41.694046,41.694046 0 0 1 71.948998,34.185707 41.694046,41.694046 0 0 1 117.70239,69.659528"
       sodipodi:arc-type="arc"
       sodipodi:open="true"
       sodipodi:end="6.1393178"
       sodipodi:start="0"
       sodipodi:ry="41.694046"
       sodipodi:rx="41.694046"
       sodipodi:cy="75.637276"
       sodipodi:cx="76.439087"
       sodipodi:type="arc"
       id="path844"
       style="fill:url(#linearGradient882);fill-opacity:1;fill-rule:evenodd;stroke-width:0.264583" />
    <g
       inkscape:path-effect="#path-effect874"
       style="font-style:italic;font-variant:normal;font-weight:900;font-stretch:normal;font-size:26.3987px;line-height:1.25;font-family:'Montserrat Alternates';-inkscape-font-specification:'Montserrat Alternates, Heavy Italic';font-variant-ligatures:normal;font-variant-caps:normal;font-variant-numeric:normal;font-variant-east-asian:normal;fill:#ffffff;stroke-width:0.264583"
       id="text848"
       aria-label="LASSO">
      <path
         inkscape:original-d="M 29.480335,84.876823 H 44.052418 L 45.02917,80.045861 H 36.687181 L 39.406247,66.397733 H 33.176153 Z"
         id="path863"
         style="font-style:italic;font-variant:normal;font-weight:900;font-stretch:normal;font-size:26.3987px;font-family:'Montserrat Alternates';-inkscape-font-specification:'Montserrat Alternates, Heavy Italic';font-variant-ligatures:normal;font-variant-caps:normal;font-variant-numeric:normal;font-variant-east-asian:normal;fill:#ffffff;stroke-width:0.264583"
         d="m 32.109375,65.097656 -4.214844,21.080078 h 17.222657 l 1.501953,-7.433593 h -8.345703 l 2.716796,-13.646485 z" />
      <path
         inkscape:original-d="m 57.943084,65.975354 c -5.464531,0 -9.13395,2.930255 -10.242696,8.473983 l -2.085497,10.427486 h 6.124498 l 0.739164,-3.722216 h 5.860512 l -0.739164,3.722216 h 6.230093 L 65.7571,75.241298 c 0.158392,-0.791961 0.237588,-1.531125 0.237588,-2.217491 0,-4.434982 -3.115047,-7.048453 -8.051604,-7.048453 z m -4.514178,10.480284 0.369582,-1.900707 c 0.501575,-2.507876 1.715916,-3.537425 3.511027,-3.537425 1.531125,0 2.455079,0.791961 2.455079,2.481477 0,0.395981 -0.0528,0.81836 -0.158392,1.319935 l -0.316784,1.63672 z"
         id="path865"
         style="font-style:italic;font-variant:normal;font-weight:900;font-stretch:normal;font-size:26.3987px;font-family:'Montserrat Alternates';-inkscape-font-specification:'Montserrat Alternates, Heavy Italic';font-variant-ligatures:normal;font-variant-caps:normal;font-variant-numeric:normal;font-variant-east-asian:normal;fill:#ffffff;stroke-width:0.264583"
         d="m 57.943359,64.673828 c -6.103677,0 -10.283882,3.351052 -11.517578,9.519531 l -2.396484,11.984375 h 8.779297 l 0.738281,-3.722656 h 3.208984 l -0.740234,3.722656 h 8.880859 l 2.136719,-10.679687 c 0.172643,-0.863211 0.261719,-1.691373 0.261719,-2.474609 0,-5.271766 -3.784033,-8.34961 -9.351563,-8.34961 z m -0.634765,7.644531 c 0.831585,0 1.154297,0.230731 1.154297,1.179688 0,0.280384 -0.03577,0.610304 -0.128907,1.052734 l -0.002,0.0098 -0.115234,0.59375 h -3.208985 l 0.06641,-0.34375 c 0.403118,-2.01559 1.184624,-2.492188 2.234375,-2.492188 z" />
      <path
         inkscape:original-d="m 74.045466,85.299203 c 5.754917,0 9.34514,-2.771864 9.34514,-6.890061 0,-5.70212 -8.817166,-4.408583 -8.817166,-6.441283 0,-0.633569 0.897556,-1.240739 2.719066,-1.240739 1.795112,0 3.590223,0.448778 5.06855,1.372732 l 2.24389,-4.540576 c -1.715915,-1.02955 -4.170995,-1.583922 -6.91646,-1.583922 -5.834112,0 -9.34514,2.745465 -9.34514,6.942858 0,5.728518 8.790768,4.593374 8.790768,6.546878 0,0.659967 -0.844759,1.082347 -2.455079,1.082347 -2.059099,0 -4.170995,-0.527975 -6.230094,-1.715916 l -2.402282,4.593374 c 1.768713,1.082347 4.698969,1.874308 7.998807,1.874308 z"
         id="path867"
         style="font-style:italic;font-variant:normal;font-weight:900;font-stretch:normal;font-size:26.3987px;font-family:'Montserrat Alternates';-inkscape-font-specification:'Montserrat Alternates, Heavy Italic';font-variant-ligatures:normal;font-variant-caps:normal;font-variant-numeric:normal;font-variant-east-asian:normal;fill:#ffffff;stroke-width:0.264583"
         d="m 77.689453,64.673828 c -6.344009,0 -10.646484,3.140418 -10.646484,8.244141 0,4.390287 3.750691,5.49954 6.414062,6.166015 -1.443691,-0.166067 -2.908358,-0.542908 -4.357422,-1.378906 l -1.173828,-0.675781 -3.59375,6.871094 1.03711,0.634765 c 1.997225,1.222183 5.220191,2.064453 8.675781,2.064453 6.250717,0 10.646484,-3.175846 10.646484,-8.191406 0,-4.969983 -5.038977,-5.799424 -7.46289,-6.373047 0.0297,-3.98e-4 0.03379,-0.0078 0.06445,-0.0078 1.585069,0 3.13356,0.395487 4.378906,1.173828 l 1.21875,0.761719 3.412109,-6.902344 -1.029296,-0.617188 C 83.301627,65.260272 80.58806,64.673828 77.689453,64.673828 Z" />
      <path
         inkscape:original-d="m 91.369612,85.299203 c 5.754917,0 9.345138,-2.771864 9.345138,-6.890061 0,-5.70212 -8.817164,-4.408583 -8.817164,-6.441283 0,-0.633569 0.897556,-1.240739 2.719066,-1.240739 1.795112,0 3.590224,0.448778 5.068551,1.372732 l 2.243887,-4.540576 c -1.71591,-1.02955 -4.170992,-1.583922 -6.916457,-1.583922 -5.834113,0 -9.34514,2.745465 -9.34514,6.942858 0,5.728518 8.790767,4.593374 8.790767,6.546878 0,0.659967 -0.844758,1.082347 -2.455079,1.082347 -2.059099,0 -4.170995,-0.527975 -6.230094,-1.715916 l -2.402281,4.593374 c 1.768713,1.082347 4.698968,1.874308 7.998806,1.874308 z"
         id="path869"
         style="font-style:italic;font-variant:normal;font-weight:900;font-stretch:normal;font-size:26.3987px;font-family:'Montserrat Alternates';-inkscape-font-specification:'Montserrat Alternates, Heavy Italic';font-variant-ligatures:normal;font-variant-caps:normal;font-variant-numeric:normal;font-variant-east-asian:normal;fill:#ffffff;stroke-width:0.264583"
         d="m 95.011719,64.673828 c -6.34401,0 -10.644531,3.140922 -10.644531,8.244141 0,4.390287 3.750691,5.49954 6.414062,6.166015 -1.44369,-0.166067 -2.908358,-0.542908 -4.357422,-1.378906 L 85.25,77.029297 l -3.59375,6.871094 1.037109,0.634765 c 1.997226,1.222183 5.220192,2.064453 8.675782,2.064453 6.250717,0 10.646489,-3.175847 10.646479,-8.191406 0,-4.969982 -5.038974,-5.799424 -7.462886,-6.373047 0.0297,-3.98e-4 0.03379,-0.0078 0.06445,-0.0078 1.585068,0 3.13356,0.395487 4.378906,1.173828 l 1.218746,0.761719 3.41211,-6.902344 -1.02929,-0.617188 c -1.97214,-1.183285 -4.687334,-1.769531 -7.585941,-1.769531 z" />
      <path
         inkscape:original-d="m 111.75601,85.299203 c 6.78447,0 11.64183,-4.540577 11.64183,-11.061056 0,-4.857361 -3.61662,-8.262793 -9.37154,-8.262793 -6.78447,0 -11.64183,4.540576 -11.64183,11.061055 0,4.857361 3.61662,8.262794 9.37154,8.262794 z m 0.52798,-5.042152 c -2.27029,0 -3.61663,-1.451929 -3.61663,-3.590223 0,-3.035851 1.76872,-5.649322 4.83097,-5.649322 2.27028,0 3.61662,1.451928 3.61662,3.590223 0,3.03585 -1.76872,5.649322 -4.83096,5.649322 z"
         id="path871"
         style="font-style:italic;font-variant:normal;font-weight:900;font-stretch:normal;font-size:26.3987px;font-family:'Montserrat Alternates';-inkscape-font-specification:'Montserrat Alternates, Heavy Italic';font-variant-ligatures:normal;font-variant-caps:normal;font-variant-numeric:normal;font-variant-east-asian:normal;fill:#ffffff;stroke-width:0.264583"
         d="m 114.02539,64.673828 c -7.43721,0 -12.94141,5.116668 -12.94141,12.363281 0,5.663873 4.27611,9.5625 10.67188,9.5625 7.43693,0 12.94336,-5.114421 12.94336,-12.361328 0,-5.664309 -4.27769,-9.564453 -10.67383,-9.564453 z m -0.52734,7.644531 c 1.57763,0 2.3164,0.833153 2.3164,2.289063 0,2.46746 -1.30146,4.349609 -3.53125,4.349609 -1.57671,0 -2.31445,-0.834114 -2.31445,-2.291015 0,-2.468092 1.29888,-4.347657 3.5293,-4.347657 z" />
    </g>
    <text
       id="text842"
       y="84.876823"
       x="29.427538"
       style="font-style:italic;font-variant:normal;font-weight:900;font-stretch:normal;font-size:26.3987px;line-height:1.25;font-family:'Montserrat Alternates';-inkscape-font-specification:'Montserrat Alternates, Heavy Italic';font-variant-ligatures:normal;font-variant-caps:normal;font-variant-numeric:normal;font-variant-east-asian:normal;fill:#000042;fill-opacity:1;stroke-width:0.264583"
       xml:space="preserve"><tspan
         style="font-style:italic;font-variant:normal;font-weight:900;font-stretch:normal;font-size:26.3987px;font-family:'Montserrat Alternates';-inkscape-font-specification:'Montserrat Alternates, Heavy Italic';font-variant-ligatures:normal;font-variant-caps:normal;font-variant-numeric:normal;font-variant-east-asian:normal;fill:#000042;fill-opacity:1;stroke-width:0.264583"
         y="84.876823"
         x="29.427538"
         id="tspan840"
         sodipodi:role="line">LASSO</tspan></text>
  </g>
</svg>
